<?xml version="1.0" encoding="UTF-8" standalone="no"?>
<svg
   xmlns:dc="http://purl.org/dc/elements/1.1/"
   xmlns:cc="http://creativecommons.org/ns#"
   xmlns:rdf="http://www.w3.org/1999/02/22-rdf-syntax-ns#"
   xmlns:svg="http://www.w3.org/2000/svg"
   xmlns="http://www.w3.org/2000/svg"
   viewBox="0 0 127.5591 81.691704"
   id="svg36"
   height="81.691704"
   width="127.5591"
   version="1.1">
  <metadata
     id="metadata42">
    <rdf:RDF>
      <cc:Work
         rdf:about="">
        <dc:format>image/svg+xml</dc:format>
        <dc:type
           rdf:resource="http://purl.org/dc/dcmitype/StillImage" />
        <dc:title></dc:title>
      </cc:Work>
    </rdf:RDF>
  </metadata>
  <defs
     id="defs40" />
  <g
     id="Layer1000">
    <path
       id="path27"
       style="fill:#007ac1;fill-rule:evenodd"
       d="M 102.8019,75.5358 H 64.0324 l 0.0022,0.1372 c 0,2.2175 -1.0892,4.2445 -2.8886,5.7998 h 41.5931 c 1.944,0 3.9403,-0.2069 5.515,-0.6574 1.5497,-0.4435 3.1886,-0.9494 4.6076,-1.7743 0.6841,-0.3981 1.3536,-0.7231 2.014,-1.1853 0.9382,-0.656 1.8595,-1.3039 2.7406,-2.0646 l 0.8603,-0.7972 c 0.8629,-0.7811 1.6081,-1.6704 2.3797,-2.5519 l 0.7426,-0.9335 c 0.9248,-1.2705 1.8436,-2.6203 2.5451,-4.0778 l 1.0961,-2.3139 c 0.0922,-0.2207 0.1411,-0.399 0.2264,-0.5981 0.9728,-2.2676 1.6362,-5.0035 1.9084,-7.5299 0.4306,-3.9921 0.1004,-8.1003 -0.9283,-11.8366 -0.0528,-0.1939 -0.122,-0.3852 -0.1951,-0.634 -0.1247,-0.4259 -0.2731,-0.843 -0.4107,-1.2438 -0.6111,-1.7699 -1.6514,-4.0769 -2.6801,-5.6396 -0.6391,-0.9715 -1.2381,-1.9954 -1.9936,-2.8531 -0.5137,-0.5825 -0.9296,-1.2477 -1.5112,-1.7652 l -0.7846,-0.8119 c -1.3874,-1.3926 -3.7152,-3.298 -5.4423,-4.1033 -0.3414,-0.1593 -0.669,-0.3938 -1.01,-0.5531 -3.3331,-1.557 -5.8556,-2.1551 -9.7417,-2.1551 -0.8435,0 -1.5294,0.1432 -2.2975,0.1432 -0.09,-0.2155 -0.1558,-0.4275 -0.2493,-0.643 -0.0974,-0.2259 -0.164,-0.4414 -0.2683,-0.6924 -0.383,-0.9175 -0.7153,-1.7834 -1.171,-2.6567 C 98.4631,21.1076 98.2878,20.7199 98.0555,20.2737 97.1908,18.618 96.2422,17.0657 95.211,15.61 94.4312,14.5082 93.6327,13.499 92.7568,12.5006 92.592,12.3132 92.4993,12.1246 92.3436,11.9744 92.141,11.7797 92.0705,11.7095 91.8879,11.4988 91.5724,11.1344 91.3106,10.8804 90.9877,10.5325 89.7894,9.2407 88.412,8.1995 87.1003,7.0704 86.0898,6.201 84.9097,5.5818 83.8261,4.834 L 82.1319,3.8529 C 81.1011,3.3717 80.1114,2.7966 79.0572,2.3868 77.1639,1.6515 75.6536,1.1876 73.6404,0.6869 71.78,0.2243 69.2618,1e-4 67.2815,1e-4 c -2.345,0 -4.4703,0.2558 -6.6704,0.7569 -4.2877,0.9772 -8.6365,2.8687 -12.3062,5.6388 l -1.4657,1.1009 c -0.5189,0.3955 -0.9257,0.7893 -1.4415,1.2013 -0.7985,0.6366 -1.5926,1.5255 -2.3192,2.2642 -0.9823,0.9962 -1.9019,2.1066 -2.7947,3.2179 l -2.6601,3.9459 c -0.1065,0.1839 -0.4081,0.7577 -0.5197,0.8326 -0.1,0.0658 -1.9738,0.1207 -2.3274,0.18 -0.7677,0.1272 -1.3783,0.2025 -2.1097,0.3583 -0.6725,0.1437 -1.428,0.3337 -2.0369,0.5163 -0.676,0.2021 -1.2399,0.4375 -1.8877,0.6859 -0.3397,0.1307 -0.5972,0.2216 -0.92,0.3718 -1.6852,0.7832 -3.3681,1.6635 -4.8789,2.8193 -0.7422,0.5682 -1.5012,1.1131 -2.1927,1.7674 -0.1139,0.1069 -0.1948,0.1705 -0.3185,0.2765 -0.863,0.7431 -1.8509,1.9474 -2.3058,2.3503 l -1.0593,1.3126 h 7.5251 c 2.6532,-2.1448 5.3951,-3.5845 8.6239,-4.2449 1.5004,-0.3077 2.9804,-0.3878 4.5067,-0.3878 2.539,0 2.487,-0.6313 3.6883,-2.69 l 2.0167,-3.2564 c 0.3527,-0.5102 0.7054,-1.0525 1.1104,-1.5108 0.2328,-0.2639 0.3514,-0.4799 0.5899,-0.7512 0.4202,-0.4795 0.7949,-0.9105 1.2108,-1.3948 l 1.284,-1.3112 c 0.9451,-0.8556 2.429,-2.256 3.4914,-2.9159 0.5349,-0.3328 0.9854,-0.7119 1.5328,-1.0248 L 57.7419,7.6096 C 62.6515,5.7081 68.1172,5.5787 73.35,6.6005 c 2.4494,0.4777 5.3588,1.6228 7.5931,2.9128 1.4554,0.8404 2.8787,1.8003 4.1968,2.8921 l 1.9327,1.7072 c 0.6016,0.586 2.1815,2.2633 2.5645,2.8402 0.3142,0.4747 1.1057,1.3982 1.5527,2.0733 1.7769,2.6813 3.2383,5.5163 4.3726,8.6261 0.2306,0.6331 0.7218,2.3407 0.9529,2.7644 1.3195,2.4238 3.3382,0.9135 6.1001,0.9135 2.2879,0 4.1548,0.1978 6.2584,0.8738 1.7176,0.5513 3.4132,1.4016 4.8936,2.5173 1.1576,0.8724 2.9609,2.4394 3.8225,3.6797 1.4212,2.0452 2.2378,3.2941 3.2188,5.8058 0.4722,1.2087 0.8716,2.6536 1.1551,4.1064 0.8633,4.4318 0.5167,9.3557 -0.869,13.5304 l -0.7456,1.9323 c -0.1199,0.3375 -0.2796,0.5548 -0.4285,0.8642 -1.9781,4.1246 -5.1947,7.3261 -8.958,9.1384 -2.2979,1.107 -4.9316,1.7574 -8.1608,1.7574 z" />
    <path
       id="path29"
       style="fill:#008dc9;fill-rule:evenodd"
       d="m 2e-4,58.2553 c 0,-1.482 0.4486,-3.3163 1.3376,-5.5032 0.8893,-2.1787 1.9625,-4.3095 3.2203,-6.3761 1.2576,-2.0748 2.6113,-4.1254 4.0612,-6.1599 1.4418,-2.0348 2.6833,-3.701 3.7168,-4.9907 1.0332,-1.2895 1.8103,-2.2027 2.3229,-2.7315 h 6.0078 c 1.1936,4.2375 2.9398,9.2842 5.2627,15.1397 2.315,5.8555 4.4779,10.8219 6.4964,14.9071 H 25.7132 C 23.102,57.6865 19.5615,48.8191 15.0836,35.9384 c -0.2163,0.3604 -0.5128,0.8572 -0.8893,1.482 -0.3765,0.6248 -1.0492,1.8104 -2.0105,3.5405 -0.9612,1.7383 -1.8102,3.3642 -2.5473,4.8702 -0.737,1.506 -1.4018,3.1082 -2.0025,4.8062 -0.6009,1.6983 -0.9053,3.052 -0.9053,4.0454 0,1.642 0.8732,2.4671 2.6275,2.4671 1.2976,0 2.8517,-0.4246 4.646,-1.2655 1.8023,-0.8493 3.3482,-1.8104 4.6461,-2.8838 l 1.4818,2.8356 c -1.2337,0.8972 -2.315,1.642 -3.2361,2.2429 -0.9293,0.6088 -2.1069,1.3216 -3.5487,2.1467 -1.4339,0.8171 -2.8517,1.4499 -4.2374,1.8905 C 7.73,62.5567 6.4324,62.773 5.2309,62.773 3.6047,62.773 2.3231,62.4046 1.3939,61.6677 0.4646,60.9307 2e-4,59.7931 2e-4,58.2553 Z m 34.8369,4.2774 V 32.7344 h 6.2481 v 26.9145 h 12.9767 v 2.8838 z M 50.2009,35.6179 v -2.8835 h 24.9922 v 2.8835 H 66.0612 V 62.5327 H 59.3325 V 35.6179 Z m 22.5732,22.6374 c 0,-1.482 0.4486,-3.3163 1.3376,-5.5032 0.8893,-2.1787 1.9625,-4.3095 3.2203,-6.3761 1.2576,-2.0748 2.6113,-4.1254 4.0612,-6.1599 1.4418,-2.0348 2.6833,-3.701 3.7167,-4.9907 1.0333,-1.2895 1.8104,-2.2027 2.3229,-2.7315 h 6.0079 c 1.1936,4.2375 2.9398,9.2842 5.2627,15.1397 2.315,5.8555 4.4779,10.8219 6.4964,14.9071 H 98.4871 C 95.8759,57.6865 92.3354,48.8191 87.8575,35.9384 c -0.2163,0.3604 -0.5128,0.8572 -0.8893,1.482 -0.3765,0.6248 -1.0492,1.8104 -2.0106,3.5405 -0.9611,1.7383 -1.8101,3.3642 -2.5473,4.8702 -0.7369,1.506 -1.4017,3.1082 -2.0024,4.8062 -0.6009,1.6983 -0.9053,3.052 -0.9053,4.0454 0,1.642 0.8732,2.4671 2.6275,2.4671 1.2976,0 2.8517,-0.4246 4.646,-1.2655 1.8023,-0.8493 3.3482,-1.8104 4.6461,-2.8838 l 1.4817,2.8356 c -1.2336,0.8972 -2.3149,1.642 -3.2361,2.2429 -0.9292,0.6088 -2.1068,1.3216 -3.5486,2.1467 -1.4339,0.8171 -2.8517,1.4499 -4.2374,1.8905 -1.3779,0.4405 -2.6755,0.6568 -3.877,0.6568 -1.6262,0 -2.9078,-0.3684 -3.837,-1.1053 -0.9293,-0.737 -1.3937,-1.8746 -1.3937,-3.4124 z" />
    <text
       id="text33"
       y="81.691101"
       x="0">
      <tspan
         style="font-size:20.5px;font-family:'Dusha V5';fill:#005f96"
         id="tspan31"
         font-size="20.5000">cloud</tspan>
    </text>
  </g>
</svg>
