<?xml version="1.0" encoding="UTF-8" standalone="no"?>
<svg
   xmlns:dc="http://purl.org/dc/elements/1.1/"
   xmlns:cc="http://creativecommons.org/ns#"
   xmlns:rdf="http://www.w3.org/1999/02/22-rdf-syntax-ns#"
   xmlns:svg="http://www.w3.org/2000/svg"
   xmlns="http://www.w3.org/2000/svg"
   xmlns:sodipodi="http://sodipodi.sourceforge.net/DTD/sodipodi-0.dtd"
   xmlns:inkscape="http://www.inkscape.org/namespaces/inkscape"
   version="1.1"
   width="60.682072"
   height="39.000004"
   id="svg75"
   sodipodi:docname="alta cloud 40.svg"
   inkscape:version="0.92.5 (2060ec1f9f, 2020-04-08)">
  <metadata
     id="metadata81">
    <rdf:RDF>
      <cc:Work
         rdf:about="">
        <dc:format>image/svg+xml</dc:format>
        <dc:type
           rdf:resource="http://purl.org/dc/dcmitype/StillImage" />
        <dc:title></dc:title>
      </cc:Work>
    </rdf:RDF>
  </metadata>
  <defs
     id="defs79" />
  <sodipodi:namedview
     pagecolor="#ffffff"
     bordercolor="#666666"
     borderopacity="1"
     objecttolerance="10"
     gridtolerance="10"
     guidetolerance="10"
     inkscape:pageopacity="0"
     inkscape:pageshadow="2"
     inkscape:window-width="1920"
     inkscape:window-height="1015"
     id="namedview77"
     showgrid="false"
     inkscape:pagecheckerboard="true"
     fit-margin-top="0"
     fit-margin-left="0"
     fit-margin-right="0"
     fit-margin-bottom="0"
     inkscape:zoom="2.8889102"
     inkscape:cx="63.779349"
     inkscape:cy="41.135533"
     inkscape:window-x="0"
     inkscape:window-y="0"
     inkscape:window-maximized="1"
     inkscape:current-layer="svg75">
    <inkscape:grid
       type="xygrid"
       id="grid83"
       originx="-0.0002"
       originy="0.28968148" />
  </sodipodi:namedview>
  <path
     d="M 48.904653,35.93372 H 30.461292 l 0.001,0.06527 c 0,1.054906 -0.518152,2.019187 -1.37416,2.759071 h 19.7866 c 0.924797,0 1.874473,-0.09843 2.623587,-0.312737 0.737221,-0.210981 1.516875,-0.451647 2.19192,-0.844067 0.325439,-0.189383 0.643932,-0.343992 0.958097,-0.563869 0.446318,-0.312071 0.884598,-0.620289 1.303753,-0.982168 l 0.409261,-0.379243 c 0.410497,-0.371583 0.765002,-0.794639 1.132067,-1.213985 l 0.353268,-0.444083 c 0.439944,-0.6044 0.877034,-1.246525 1.210751,-1.939884 l 0.521435,-1.100765 c 0.04386,-0.104991 0.06712,-0.189812 0.107702,-0.284527 0.462779,-1.078739 0.778371,-2.380257 0.907861,-3.582112 0.204844,-1.899115 0.04776,-3.853461 -0.441609,-5.630887 -0.02512,-0.09224 -0.05804,-0.183247 -0.09281,-0.301606 -0.05928,-0.20261 -0.129876,-0.401032 -0.195334,-0.5917 -0.290712,-0.841974 -0.785602,-1.939456 -1.274973,-2.682861 -0.304032,-0.462161 -0.588987,-0.949249 -0.948392,-1.357272 -0.244377,-0.277106 -0.442228,-0.593554 -0.718906,-0.839738 l -0.373248,-0.386236 c -0.660012,-0.662485 -1.767389,-1.568919 -2.589002,-1.952015 -0.16241,-0.07578 -0.318256,-0.187338 -0.480476,-0.26312 -1.585617,-0.740693 -2.785616,-1.02522 -4.634305,-1.02522 -0.401268,0 -0.727564,0.06812 -1.092963,0.06812 -0.04282,-0.102517 -0.07412,-0.203369 -0.118596,-0.305887 -0.04633,-0.107464 -0.07802,-0.209982 -0.127636,-0.329387 -0.1822,-0.436471 -0.340281,-0.848396 -0.557066,-1.263841 C 46.840607,10.041225 46.757213,9.856789 46.646704,9.644523 46.23535,8.856877 45.784084,8.118419 45.293523,7.425916 44.922558,6.901769 44.542697,6.421675 44.126015,5.946717 44.047615,5.857567 44.003518,5.767847 43.929448,5.696394 43.833068,5.603774 43.79953,5.570377 43.712664,5.470143 43.562574,5.296791 43.438031,5.175958 43.284422,5.010456 42.714369,4.395923 42.059114,3.900605 41.435114,3.363472 40.954401,2.949882 40.393006,2.655317 39.877518,2.299575 L 39.071556,1.832848 C 38.581185,1.603932 38.110367,1.330347 37.608864,1.135397 36.708187,0.785602 35.989709,0.564916 35.031993,0.326724 34.146967,0.106656 32.949013,0 32.006948,0 30.891388,0 29.880344,0.121689 28.833716,0.360071 26.793979,0.824943 24.725175,1.724765 22.979431,3.042552 l -0.69726,0.523718 c -0.24685,0.188147 -0.440372,0.375485 -0.685748,0.571481 -0.379861,0.302842 -0.757629,0.725708 -1.103286,1.077121 -0.467298,0.473911 -0.904769,1.002148 -1.32949,1.530814 l -1.265458,1.877137 c -0.05066,0.08749 -0.194141,0.360452 -0.247231,0.396083 -0.04757,0.0313 -0.938973,0.05742 -1.107187,0.08563 -0.365209,0.06051 -0.655682,0.09633 -1.003623,0.170449 -0.31992,0.06836 -0.679326,0.158748 -0.968991,0.245614 -0.321585,0.09614 -0.589843,0.208127 -0.898013,0.326295 -0.161602,0.06218 -0.284099,0.105419 -0.437661,0.176872 -0.80168,0.372583 -1.602267,0.791358 -2.320982,1.341193 -0.353078,0.270303 -0.714148,0.529522 -1.0431077,0.840784 -0.054184,0.05086 -0.09267,0.08111 -0.1515163,0.131537 -0.4105449,0.353506 -0.8805071,0.926413 -1.0969113,1.11808 l -0.5039285,0.624428 h 3.5798278 c 1.262176,-1.02032 2.566548,-1.705212 4.102548,-2.019377 0.713767,-0.146378 1.417831,-0.184483 2.143919,-0.184483 1.207849,0 1.183112,-0.300321 1.754592,-1.279682 l 0.959382,-1.54913 C 20.827091,8.804405 20.994877,8.546423 21.187543,8.328401 21.29829,8.202859 21.354711,8.100104 21.468169,7.971042 21.668066,7.742935 21.846318,7.5379 22.044169,7.30751 l 0.610823,-0.623762 c 0.449601,-0.407025 1.155519,-1.073221 1.660923,-1.387147 0.254461,-0.158319 0.468772,-0.338664 0.729181,-0.487517 l 2.423689,-1.189105 c 2.335587,-0.904578 4.935721,-0.966136 7.42506,-0.480047 1.165224,0.22725 2.549279,0.771995 3.612177,1.385672 0.69236,0.399794 1.36945,0.856436 1.996494,1.375825 l 0.919421,0.812146 c 0.286192,0.278771 1.03778,1.076694 1.21998,1.351135 0.14947,0.225824 0.526002,0.66515 0.738648,0.986307 0.845304,1.275544 1.540518,2.624205 2.080126,4.103594 0.1097,0.301178 0.343373,1.113514 0.453312,1.315076 0.62771,1.153046 1.588043,0.434569 2.901929,0.434569 1.088396,0 1.976515,0.0941 2.977236,0.415682 0.817093,0.262264 1.623721,0.666767 2.327975,1.197526 0.550691,0.415017 1.408554,1.160467 1.818433,1.750501 0.676091,0.972939 1.064563,1.567064 1.531242,2.761925 0.224635,0.575001 0.414636,1.262367 0.549503,1.95349 0.410687,2.108289 0.245803,4.450678 -0.4134,6.43666 l -0.354695,0.91923 c -0.05704,0.160555 -0.133011,0.263929 -0.203845,0.411116 -0.941019,1.962148 -2.471215,3.48516 -4.261485,4.347304 -1.093153,0.52662 -2.346053,0.836028 -3.882243,0.836028 z"
     style="fill:#d5effa;fill-rule:evenodd;stroke-width:0.47571832"
     id="path67"
     inkscape:connector-curvature="0" />
  <path
     d="M 0,27.713069 C 0,27.008054 0.21340724,26.135444 0.63632084,25.095096 1.0593772,24.058648 1.5699181,23.044988 2.1682766,22.061868 2.76654,21.074848 3.4105199,20.09934 4.1002639,19.131491 4.7861546,18.163499 5.3767589,17.370857 5.8684138,16.757323 6.359926,16.143885 6.7296067,15.709459 6.9734599,15.457899 h 2.8580206 c 0.5678175,2.015856 1.3985165,4.416664 2.5035625,7.202233 1.101288,2.785568 2.13022,5.148176 3.090457,7.09158 H 12.232146 C 10.98995,27.44248 9.3056691,23.224096 7.1754499,17.09651 7.072552,17.267959 6.9315016,17.504296 6.7523936,17.801525 c -0.1791079,0.297229 -0.4991237,0.861241 -0.9564317,1.684281 -0.4572605,0.826941 -0.8611453,1.600411 -1.2117973,2.316843 -0.3506044,0.716432 -0.666862,1.478628 -0.952626,2.286398 -0.2858591,0.807912 -0.4306678,1.451892 -0.4306678,1.924471 0,0.781129 0.4153973,1.173644 1.2499499,1.173644 0.6172921,0 1.356606,-0.20199 2.2101874,-0.602021 0.8573872,-0.404028 1.5928001,-0.861241 2.210235,-1.371877 l 0.7049194,1.348947 c -0.5868937,0.426815 -1.1012879,0.78113 -1.5394721,1.066989 -0.4420851,0.289617 -1.002291,0.628709 -1.6881817,1.021224 -0.6821325,0.38871 -1.3566059,0.689744 -2.0158088,0.899346 -0.6554923,0.209554 -1.2727844,0.312452 -1.84436,0.312452 -0.7736132,0 -1.3832938,-0.175255 -1.82533126,-0.525812 C 0.22092359,28.985806 0,28.444629 0,27.713069 Z m 16.572552,2.034838 V 15.572309 h 2.972336 V 28.37603 h 6.173254 v 1.371877 z m 7.308841,-12.803864 v -1.371734 h 11.889248 v 1.371734 H 31.426429 V 29.747907 H 28.225463 V 16.944043 Z m 10.738485,10.769026 c 0,-0.705015 0.213408,-1.577625 0.636321,-2.617973 0.423057,-1.036448 0.933598,-2.050108 1.531956,-3.033228 0.598263,-0.98702 1.242243,-1.962528 1.931987,-2.930377 0.685891,-0.967992 1.276495,-1.760634 1.768103,-2.374168 0.491559,-0.613438 0.86124,-1.047864 1.105046,-1.299424 h 2.858068 c 0.567817,2.015856 1.398517,4.416664 2.503563,7.202233 1.101288,2.785568 2.130219,5.148176 3.090456,7.09158 H 46.852024 C 45.609828,27.44248 43.925548,23.224096 41.795328,17.09651 c -0.102897,0.171449 -0.243948,0.407786 -0.423056,0.705015 -0.179108,0.297229 -0.499124,0.861241 -0.956479,1.684281 -0.457213,0.826941 -0.861098,1.600411 -1.211797,2.316843 -0.350557,0.716432 -0.666815,1.478628 -0.952579,2.286398 -0.285859,0.807912 -0.430668,1.451892 -0.430668,1.924471 0,0.781129 0.415398,1.173644 1.24995,1.173644 0.617292,0 1.356606,-0.20199 2.210188,-0.602021 0.857387,-0.404028 1.5928,-0.861241 2.210235,-1.371877 l 0.704871,1.348947 c -0.586846,0.426815 -1.10124,0.78113 -1.539472,1.066989 -0.442037,0.289617 -1.002243,0.628709 -1.688134,1.021224 -0.682132,0.38871 -1.356606,0.689744 -2.015809,0.899346 -0.655492,0.209554 -1.272784,0.312452 -1.84436,0.312452 -0.773613,0 -1.383293,-0.175255 -1.825331,-0.525812 -0.442085,-0.350604 -0.663009,-0.891781 -0.663009,-1.623341 z"
     style="fill:#ffffff;fill-rule:evenodd;stroke-width:0.47571832"
     id="path69"
     inkscape:connector-curvature="0" />
  <text
     x="-9.514366e-05"
     y="38.861912"
     id="text73"
     style="font-size:5.70862007px;stroke-width:0.47571832">
    <tspan
       font-size="20.5000"
       id="tspan71"
       style="font-size:9.75222588px;font-family:'Dusha V5';fill:#88d1f0;stroke-width:0.47571832">cloud</tspan>
  </text>
</svg>
